<svg id="svg2" xmlns:rdf="http://www.w3.org/1999/02/22-rdf-syntax-ns#" xmlns="http://www.w3.org/2000/svg" height="330.2" width="2187.2" version="1.1" xmlns:cc="http://creativecommons.org/ns#" xmlns:dc="http://purl.org/dc/elements/1.1/" viewBox="0 0 2187.25 330.23">
  <g id="layer1" fill="#fff">
    <g>
      <polygon points="770.79 99.2 852.67 99.2 852.67 312.68 940.4 312.68 940.4 99.2 1022.28 99.2 1022.28 20.25 770.79 20.25 770.79 99.2"/>
      <path d="M1209.43,99.2h128.69V20.25H1209.44c-118.23,0-181.35,58.77-181.35,146.21s63.12,146.22,181.35,146.22h128.68v-79H1209.43c-54.7,0-90.68-19.55-90.68-67.26S1154.73,99.2,1209.43,99.2Z"/>
      <polygon points="592.36 20.25 545.59 194.8 498.82 20.25 343.83 20.25 343.83 312.68 431.56 312.68 431.56 74.81 495.3 312.68 595.89 312.68 659.66 74.67 659.66 312.68 747.39 312.68 747.39 20.25 592.36 20.25"/>
    </g>
    <path d="M139.13,330.23c-80.87,0-117-64.87-117-129.19,0-43.94,14.85-94.53,39.73-135.4C85.76,26.17,114.71,2.7,139.13,2.7s53.28,23.47,77.37,62.94c24.76,40.87,39.6,91.46,39.6,135.4,0,64.32-36.18,129.19-117,129.19"/>
  </g>
  <g id="layer2" fill="#fff">
    <path d="M1527.39,19.81l45.32,146.81h-44.89l-8.51-28.09h-51.92l-8.3,28.09h-38.72l45.32-146.81ZM1477,106.62h32.77l-16.38-54.26Z"/>
    <path d="M1577,92.58c0-57.45,26.18-76,69.8-76,40,0,64.68,14,68.29,54h-43.62c-1.7-16.59-11.06-20-24.67-20-14.9,0-26.18,3.62-26.18,29.36v26c0,25.75,10.85,29.79,26.18,29.79,13.4,0,22.55-4,24.89-20.43h43.62c-4.26,39.58-28.51,54.47-68.51,54.47C1603.14,169.81,1577,152.37,1577,92.58Z"/>
    <path d="M1777,73.64h7.45l38.09-53.83h44.89l-48.94,70,53.2,76.81h-49.15l-39.37-56.81H1777v56.81h-42.55V19.81H1777Z"/>
    <path d="M1925.27,130.88,1867.4,19.81h44.47l34,66.6L1977,19.81h40.64l-68.3,146.81h-40.64Z"/>
    <path d="M2021.87,115.34h43.62c2.34,16.39,11.49,20.43,24.89,20.43,14.89,0,25.75-3.83,26.17-28.3h-46V75.56h45.75c-.85-21.49-11.7-24.9-26-24.9-13.62,0-23,3.41-24.68,20h-43.62c3.62-40,28.3-54,68.3-54,43.62,0,69.79,18.51,69.79,76,0,59.79-26.17,77.23-69.79,77.23C2050.38,169.81,2026.12,154.92,2021.87,115.34Z"/>
  </g>
</svg>
